<svg width="44" height="44" viewBox="0 0 44 44" fill="none" xmlns="http://www.w3.org/2000/svg">
<g id="ic:round-close">
<path id="Vector" d="M33.5494 10.4687C33.3798 10.2988 33.1784 10.1639 32.9566 10.072C32.7348 9.97995 32.497 9.9326 32.2569 9.9326C32.0168 9.9326 31.7791 9.97995 31.5573 10.072C31.3355 10.1639 31.134 10.2988 30.9644 10.4687L21.9994 19.4154L13.0344 10.4504C12.8647 10.2807 12.6632 10.146 12.4414 10.0542C12.2197 9.96232 11.982 9.91504 11.7419 9.91504C11.5019 9.91504 11.2642 9.96232 11.0424 10.0542C10.8207 10.146 10.6192 10.2807 10.4494 10.4504C10.2797 10.6201 10.1451 10.8216 10.0532 11.0434C9.96134 11.2652 9.91406 11.5029 9.91406 11.7429C9.91406 11.9829 9.96134 12.2206 10.0532 12.4424C10.1451 12.6642 10.2797 12.8657 10.4494 13.0354L19.4144 22.0004L10.4494 30.9654C10.2797 31.1351 10.1451 31.3366 10.0532 31.5584C9.96134 31.7802 9.91406 32.0179 9.91406 32.2579C9.91406 32.4979 9.96134 32.7356 10.0532 32.9574C10.1451 33.1792 10.2797 33.3807 10.4494 33.5504C10.6192 33.7201 10.8207 33.8548 11.0424 33.9466C11.2642 34.0385 11.5019 34.0858 11.7419 34.0858C11.982 34.0858 12.2197 34.0385 12.4414 33.9466C12.6632 33.8548 12.8647 33.7201 13.0344 33.5504L21.9994 24.5854L30.9644 33.5504C31.1342 33.7201 31.3357 33.8548 31.5574 33.9466C31.7792 34.0385 32.0169 34.0858 32.2569 34.0858C32.497 34.0858 32.7347 34.0385 32.9564 33.9466C33.1782 33.8548 33.3797 33.7201 33.5494 33.5504C33.7192 33.3807 33.8538 33.1792 33.9457 32.9574C34.0375 32.7356 34.0848 32.4979 34.0848 32.2579C34.0848 32.0179 34.0375 31.7802 33.9457 31.5584C33.8538 31.3366 33.7192 31.1351 33.5494 30.9654L24.5844 22.0004L33.5494 13.0354C34.2461 12.3387 34.2461 11.1654 33.5494 10.4687Z" fill="black"/>
</g>
</svg>
