<svg width="24" height="25" viewBox="0 0 24 25" fill="none" xmlns="http://www.w3.org/2000/svg">
<path fill-rule="evenodd" clip-rule="evenodd" d="M5.624 4.92358C3.965 5.68158 2.75 7.48558 2.75 9.63658C2.75 11.8336 3.65 13.5276 4.938 14.9796C6.001 16.1756 7.287 17.1676 8.541 18.1336C8.839 18.3636 9.135 18.5926 9.426 18.8216C9.952 19.2366 10.421 19.5996 10.874 19.8646C11.326 20.1286 11.69 20.2496 12 20.2496C12.31 20.2496 12.674 20.1296 13.126 19.8646C13.579 19.5996 14.048 19.2366 14.574 18.8216C14.864 18.5916 15.161 18.3636 15.459 18.1346C16.713 17.1666 17.999 16.1756 19.062 14.9796C20.351 13.5276 21.25 11.8336 21.25 9.63658C21.25 7.48658 20.035 5.68158 18.376 4.92358C16.764 4.18658 14.598 4.38158 12.54 6.52058C12.47 6.59317 12.3862 6.6509 12.2934 6.69034C12.2006 6.72977 12.1008 6.7501 12 6.7501C11.8992 6.7501 11.7994 6.72977 11.7066 6.69034C11.6138 6.6509 11.53 6.59317 11.46 6.52058C9.402 4.38158 7.236 4.18658 5.624 4.92358ZM12 4.95958C9.688 2.88958 7.099 2.59958 5 3.55858C2.786 4.57358 1.25 6.92558 1.25 9.63758C1.25 12.3026 2.36 14.3366 3.817 15.9766C4.983 17.2896 6.41 18.3886 7.671 19.3586C7.957 19.5786 8.234 19.7926 8.497 20.0006C9.01 20.4046 9.56 20.8346 10.117 21.1606C10.674 21.4856 11.31 21.7506 12 21.7506C12.69 21.7506 13.326 21.4856 13.883 21.1606C14.441 20.8346 14.99 20.4046 15.503 20.0006C15.7769 19.7847 16.0522 19.5707 16.329 19.3586C17.589 18.3886 19.017 17.2886 20.183 15.9766C21.64 14.3366 22.75 12.3026 22.75 9.63758C22.75 6.92558 21.215 4.57358 19 3.56058C16.901 2.60058 14.312 2.89058 12 4.95958Z" fill="black"/>
</svg>
