<svg width="75" height="48" viewBox="0 0 75 48" fill="none" xmlns="http://www.w3.org/2000/svg">
<g filter="url(#filter0_b_81_17997)">
<path d="M6.95389 11.3529C8.11803 10.4312 8.52662 8.84737 7.95369 7.47746L7.92481 7.4084C7.68434 6.83341 7.60597 6.20353 7.69821 5.58714L7.70722 5.52692C7.89068 4.30094 8.68714 3.25337 9.81942 2.74876L10.4266 2.47816C11.047 2.2017 11.7185 2.05882 12.3977 2.05882H13.7517C14.8656 2.05882 15.9733 2.2249 17.0383 2.55157L20.3219 3.55882L21.846 4.09605C23.2121 4.57754 24.6499 4.82353 26.0983 4.82353C27.0287 4.82353 27.9563 4.92503 28.8646 5.12623L30.4193 5.47059L32.1972 5.82246C33.2001 6.02097 34.1344 5.25347 34.1344 4.23107C34.1344 3.80065 34.3055 3.38788 34.6099 3.08361L35.4443 2.24971C36.1587 1.53573 37.0939 1.0848 38.0975 0.970446L44.0868 0.287911C45.6478 0.110024 47.1836 0.78677 48.1057 2.05882L48.726 2.89604C49.0125 3.28273 48.9902 3.81694 48.6726 4.17845C48.3449 4.55137 48.3327 5.1059 48.6438 5.4928L48.8136 5.70403C49.0687 6.02133 49.4539 6.20588 49.861 6.20588H50.2694C50.7211 6.20588 51.1618 6.34516 51.5315 6.60474L51.9925 6.92847C52.5815 7.34205 52.9321 8.01664 52.9321 8.73635C52.9321 9.40517 53.2352 10.038 53.7562 10.4573L54.0479 10.6921C54.5793 11.1198 55.241 11.3529 55.9232 11.3529H57.2227C57.7208 11.3529 58.2114 11.2325 58.6529 11.002L59.5682 10.524C60.3752 10.1025 61.3685 10.3247 61.919 11.0498L62.2622 11.5017C62.6738 12.0438 63.4389 12.1662 63.999 11.7796C64.3804 11.5164 64.8748 11.4812 65.2896 11.6879L68.3958 13.2353L71.301 14.2535C71.7005 14.3935 72.0363 14.6727 72.2469 15.0399L72.3498 15.2193C72.7238 15.8713 72.5656 16.6987 71.9775 17.1668C71.395 17.6305 71.2336 18.4476 71.596 19.098L72.2652 20.299C72.7297 21.1325 72.7903 22.1319 72.4299 23.0154L72.0326 23.9896C71.958 24.1724 71.863 24.3462 71.7493 24.5077C71.2593 25.2036 70.4614 25.6176 69.6103 25.6176H69.4764C68.7798 25.6176 68.1069 25.8706 67.5829 26.3296L67.437 26.4573C66.9253 26.9054 66.5698 27.5051 66.4223 28.1691C66.1538 29.3767 65.2129 30.3212 64.0063 30.5941L63.6433 30.6762C63.3831 30.735 63.1298 30.8212 62.8877 30.9334L55.1985 34.4945C54.9799 34.5957 54.776 34.7262 54.5925 34.8823L54.4796 34.9783C53.5794 35.7437 53.3436 37.0375 53.9157 38.0713C54.4741 39.0804 55.6539 39.572 56.7636 39.2579L57.1553 39.1471L57.8103 39.0549C59.2125 38.8576 60.0607 40.5567 59.0605 41.5588L58.8526 41.7514C58.3236 42.2413 57.5538 42.3694 56.8947 42.077C56.1947 41.7666 55.375 41.9316 54.8498 42.4889L54.6413 42.7101C54.2193 43.1579 53.6311 43.4118 53.0158 43.4118H52.1702C51.4549 43.4118 50.8253 43.8834 50.6241 44.5698C50.461 45.1265 50.0111 45.5526 49.4464 45.6852L49.0093 45.7878C48.4418 45.9211 47.8448 45.7738 47.4044 45.3919C46.9148 44.9673 46.6885 44.314 46.8107 43.6775L47.0055 42.6626C47.1918 41.6917 46.4044 40.8091 45.4186 40.8841L43.7466 41.0113C42.3782 41.1154 41.9104 39.2281 43.169 38.6811C44.314 38.1834 44.0572 36.4902 42.8161 36.3546L42.3919 36.3082C42.3063 36.2988 42.2218 36.2812 42.1396 36.2555L40.3251 35.6885C39.8691 35.546 39.4615 35.2798 39.1477 34.9196C38.1808 33.8095 36.4832 33.7307 35.4175 34.7463L31.1755 38.7895C30.9359 39.0178 30.8003 39.3343 30.8003 39.6653V39.841C30.8003 40.6426 29.969 41.1738 29.2416 40.8369C29.0971 40.77 28.9397 40.7353 28.7804 40.7353H25.6605C25.3143 40.7353 24.9844 40.5883 24.7528 40.331C24.2156 39.7338 24.3914 38.7896 25.1075 38.4258L25.2437 38.3567C25.5111 38.2209 25.725 37.9992 25.8513 37.7273L27.3219 34.5607C27.7632 33.6104 28.8568 33.154 29.8427 33.5086L30.3439 33.6888C30.6311 33.7921 30.9502 33.7534 31.2043 33.5845C31.7356 33.2315 31.7841 32.4693 31.302 32.0518L30.0159 30.9379C29.8831 30.8228 29.7642 30.6927 29.6615 30.55L28.6595 29.1579C28.2919 28.6472 28.0415 28.0616 27.9262 27.443L27.9147 27.3812C27.655 25.9888 26.7052 24.8239 25.3935 24.2893C25.2091 24.2142 25.0196 24.1524 24.8264 24.1043L22.5128 23.5294L21.4705 23.3066C20.3114 23.0588 19.104 23.3865 18.2292 24.1863C17.5532 24.8043 16.6704 25.1471 15.7545 25.1471H14.8363C14.2454 25.1471 13.6614 25.2743 13.1241 25.5201C12.0113 26.0291 10.7297 26.0166 9.62703 25.486L9.32485 25.3406C9.05724 25.2119 8.77832 25.108 8.49164 25.0305L5.92633 24.3366C5.5335 24.2303 5.12834 24.1765 4.72138 24.1765H3.85004C2.62097 24.1765 1.49922 23.4764 0.959132 22.3724C0.380023 21.1886 0.58117 19.7714 1.4668 18.7954L1.56172 18.6908C1.74767 18.4859 1.90811 18.2593 2.03955 18.0158L2.5899 16.9962C2.78906 16.6273 2.94783 16.2379 3.06345 15.8349L3.09059 15.7403C3.35412 14.8217 3.85414 13.9883 4.54067 13.3235L6.95389 11.3529Z" fill="#FFCF26"/>
</g>
<path d="M18.26 20H17.45L15.14 13.25H16.17L17.85 18.41L19.48 13.25H20.28L21.92 18.41L23.59 13.25H24.62L22.31 20H21.5L19.88 14.99L18.26 20ZM26.2159 20H25.3159V15.5H26.2159V20ZM25.7659 13.46C25.9325 13.46 26.0725 13.5167 26.1859 13.63C26.2992 13.7433 26.3559 13.8833 26.3559 14.05C26.3559 14.3167 26.2325 14.5 25.9859 14.6C25.7392 14.7 25.5225 14.66 25.3359 14.48C25.1559 14.2933 25.1159 14.0767 25.2159 13.83C25.3159 13.5833 25.4992 13.46 25.7659 13.46ZM27.3373 20V15.5H28.2373V16.15C28.5773 15.6367 29.0673 15.38 29.7073 15.38C30.2273 15.38 30.6573 15.55 30.9973 15.89C31.3373 16.2167 31.5073 16.6367 31.5073 17.15V20H30.5973V17.41C30.5973 17.0767 30.4873 16.8 30.2673 16.58C30.0473 16.36 29.774 16.25 29.4473 16.25C29.1073 16.25 28.8207 16.3633 28.5873 16.59C28.354 16.81 28.2373 17.0867 28.2373 17.42V20H27.3373ZM37.0705 18.08H33.3505C33.4239 18.4267 33.5939 18.7133 33.8605 18.94C34.1339 19.16 34.4572 19.27 34.8305 19.27C35.3305 19.27 35.7272 19.0833 36.0205 18.71L36.9005 18.98C36.7005 19.3267 36.4139 19.6033 36.0405 19.81C35.6739 20.0167 35.2705 20.12 34.8305 20.12C34.1505 20.12 33.5772 19.8933 33.1105 19.44C32.6505 18.9867 32.4205 18.4233 32.4205 17.75C32.4205 17.07 32.6439 16.5067 33.0905 16.06C33.5439 15.6067 34.1005 15.38 34.7605 15.38C35.4139 15.38 35.9672 15.6067 36.4205 16.06C36.8672 16.5067 37.0905 17.07 37.0905 17.75C37.0905 17.8767 37.0839 17.9867 37.0705 18.08ZM33.3605 17.36H36.1605C36.0805 17.02 35.9105 16.7467 35.6505 16.54C35.3905 16.3333 35.0872 16.23 34.7405 16.23C34.4072 16.23 34.1105 16.3367 33.8505 16.55C33.5972 16.7567 33.4339 17.0267 33.3605 17.36ZM37.7549 16.63C37.7549 15.6367 38.0916 14.8033 38.7649 14.13C39.4383 13.4633 40.2849 13.13 41.3049 13.13C41.9849 13.13 42.5983 13.29 43.1449 13.61C43.6983 13.93 44.1249 14.37 44.4249 14.93L43.4549 15.3C43.2416 14.92 42.9449 14.6233 42.5649 14.41C42.1849 14.1967 41.7649 14.09 41.3049 14.09C40.5916 14.09 39.9916 14.3333 39.5049 14.82C39.0249 15.3 38.7849 15.9033 38.7849 16.63C38.7849 17.3433 39.0149 17.9467 39.4749 18.44C39.9483 18.92 40.5216 19.16 41.1949 19.16C41.7749 19.16 42.2816 18.9867 42.7149 18.64C43.1549 18.2867 43.4349 17.84 43.5549 17.3H41.0449V16.37H44.6749C44.6883 16.5433 44.6949 16.6433 44.6949 16.67C44.6883 17.6433 44.3516 18.4633 43.6849 19.13C43.0249 19.79 42.2049 20.12 41.2249 20.12C40.2383 20.12 39.4116 19.7867 38.7449 19.12C38.0849 18.4533 37.7549 17.6233 37.7549 16.63ZM46.6065 15.5V16.15C46.9465 15.6367 47.4365 15.38 48.0765 15.38C48.1498 15.38 48.1965 15.3833 48.2165 15.39V16.4C48.1165 16.3533 47.9832 16.33 47.8165 16.33C47.4698 16.33 47.1798 16.44 46.9465 16.66C46.7198 16.88 46.6065 17.1567 46.6065 17.49V20H45.7065V15.5H46.6065ZM50.7927 15.38C51.3727 15.38 51.8693 15.5767 52.2827 15.97V15.5H53.1827V20H52.2827V19.53C51.8693 19.9233 51.3727 20.12 50.7927 20.12C50.1727 20.12 49.646 19.8933 49.2127 19.44C48.7927 18.9933 48.5827 18.43 48.5827 17.75C48.5827 17.0767 48.7927 16.5133 49.2127 16.06C49.646 15.6067 50.1727 15.38 50.7927 15.38ZM51.8627 16.71C51.6027 16.43 51.2793 16.29 50.8927 16.29C50.5127 16.29 50.186 16.43 49.9127 16.71C49.6527 16.99 49.5227 17.3367 49.5227 17.75C49.5227 18.1633 49.6527 18.51 49.9127 18.79C50.186 19.07 50.5127 19.21 50.8927 19.21C51.2793 19.21 51.6027 19.07 51.8627 18.79C52.1293 18.5167 52.2627 18.17 52.2627 17.75C52.2627 17.33 52.1293 16.9833 51.8627 16.71ZM56.3102 15.38C56.8902 15.38 57.3869 15.5767 57.8002 15.97V12.75H58.7002V20H57.8002V19.53C57.3869 19.9233 56.8902 20.12 56.3102 20.12C55.6902 20.12 55.1636 19.8933 54.7302 19.44C54.3102 18.9933 54.1002 18.43 54.1002 17.75C54.1002 17.0767 54.3102 16.5133 54.7302 16.06C55.1636 15.6067 55.6902 15.38 56.3102 15.38ZM57.3802 16.71C57.1202 16.43 56.7969 16.29 56.4102 16.29C56.0302 16.29 55.7036 16.43 55.4302 16.71C55.1702 16.99 55.0402 17.3367 55.0402 17.75C55.0402 18.1633 55.1702 18.51 55.4302 18.79C55.7036 19.07 56.0302 19.21 56.4102 19.21C56.7969 19.21 57.1202 19.07 57.3802 18.79C57.6469 18.5167 57.7802 18.17 57.7802 17.75C57.7802 17.33 57.6469 16.9833 57.3802 16.71Z" fill="black"/>
<defs>
<filter id="filter0_b_81_17997" x="-79.3672" y="-79.7402" width="232.031" height="205.576" filterUnits="userSpaceOnUse" color-interpolation-filters="sRGB">
<feFlood flood-opacity="0" result="BackgroundImageFix"/>
<feGaussianBlur in="BackgroundImageFix" stdDeviation="40"/>
<feComposite in2="SourceAlpha" operator="in" result="effect1_backgroundBlur_81_17997"/>
<feBlend mode="normal" in="SourceGraphic" in2="effect1_backgroundBlur_81_17997" result="shape"/>
</filter>
</defs>
</svg>
